<svg width="24" height="24" viewBox="0 0 24 24" fill="none" xmlns="http://www.w3.org/2000/svg">
<path d="M18.4929 9.38969L13.3414 14.5412C13.3039 14.5787 13.253 14.5997 13.2 14.5997C13.147 14.5997 13.0962 14.5787 13.0587 14.5413C13.0587 14.5413 13.0586 14.5412 13.0586 14.5412L10.3071 11.7897L9.59999 11.0826L8.89288 11.7897L3.75001 16.9326C3.71271 16.9668 3.66375 16.9857 3.613 16.9852C3.56056 16.9848 3.51039 16.9638 3.47331 16.9267L2.77246 17.6275L3.47331 16.9267C3.43623 16.8896 3.4152 16.8394 3.41474 16.787C3.4143 16.7362 3.43317 16.6873 3.46742 16.65L9.45859 10.6588C9.45862 10.6588 9.45866 10.6587 9.45869 10.6587C9.49619 10.6213 9.54701 10.6003 9.59999 10.6003C9.65297 10.6003 9.70378 10.6213 9.74128 10.6587C9.74132 10.6587 9.74135 10.6588 9.74139 10.6588L12.4929 13.4103L13.2 14.1174L13.9071 13.4103L18.2103 9.10711L19.9174 7.4H17.5032H14.4C14.3469 7.4 14.2961 7.37893 14.2586 7.34142C14.2211 7.30391 14.2 7.25304 14.2 7.2C14.2 7.14696 14.2211 7.09609 14.2586 7.05858C14.2961 7.02107 14.3469 7 14.4 7H20.4C20.453 7 20.5039 7.02107 20.5414 7.05858C20.5789 7.09608 20.6 7.14695 20.6 7.2V13.2C20.6 13.253 20.5789 13.3039 20.5414 13.3414C20.5039 13.3789 20.453 13.4 20.4 13.4C20.3469 13.4 20.2961 13.3789 20.2586 13.3414C20.2211 13.3039 20.2 13.253 20.2 13.2V10.0968V7.68259L18.4929 9.38969Z" fill="#3F3F46" stroke="#334155" stroke-width="2"/>
</svg>
