<svg width="25" height="25" viewBox="0 0 25 25" fill="none" xmlns="http://www.w3.org/2000/svg">
<path d="M10.1691 7.99369V8.00036M10.1691 12.6604V12.667M10.1691 17.327V17.3337M10.1691 8.66036C9.9923 8.66036 9.82273 8.59012 9.6977 8.4651C9.57268 8.34007 9.50244 8.1705 9.50244 7.99369C9.50244 7.81688 9.57268 7.64731 9.6977 7.52229C9.82273 7.39726 9.9923 7.32703 10.1691 7.32703C10.3459 7.32703 10.5155 7.39726 10.6405 7.52229C10.7655 7.64731 10.8358 7.81688 10.8358 7.99369C10.8358 8.1705 10.7655 8.34007 10.6405 8.4651C10.5155 8.59012 10.3459 8.66036 10.1691 8.66036ZM10.1691 13.327C9.9923 13.327 9.82273 13.2568 9.6977 13.1318C9.57268 13.0067 9.50244 12.8372 9.50244 12.6604C9.50244 12.4835 9.57268 12.314 9.6977 12.189C9.82273 12.0639 9.9923 11.9937 10.1691 11.9937C10.3459 11.9937 10.5155 12.0639 10.6405 12.189C10.7655 12.314 10.8358 12.4835 10.8358 12.6604C10.8358 12.8372 10.7655 13.0067 10.6405 13.1318C10.5155 13.2568 10.3459 13.327 10.1691 13.327ZM10.1691 17.9937C9.9923 17.9937 9.82273 17.9235 9.6977 17.7984C9.57268 17.6734 9.50244 17.5038 9.50244 17.327C9.50244 17.1502 9.57268 16.9806 9.6977 16.8556C9.82273 16.7306 9.9923 16.6604 10.1691 16.6604C10.3459 16.6604 10.5155 16.7306 10.6405 16.8556C10.7655 16.9806 10.8358 17.1502 10.8358 17.327C10.8358 17.5038 10.7655 17.6734 10.6405 17.7984C10.5155 17.9235 10.3459 17.9937 10.1691 17.9937Z" stroke="#A1A1AA" stroke-linecap="round" stroke-linejoin="round"/>
<path d="M14.5026 7.99369V8.00036M14.5026 12.6604V12.667M14.5026 17.327V17.3337M14.5026 8.66036C14.3258 8.66036 14.1562 8.59012 14.0312 8.4651C13.9062 8.34007 13.8359 8.1705 13.8359 7.99369C13.8359 7.81688 13.9062 7.64731 14.0312 7.52229C14.1562 7.39726 14.3258 7.32703 14.5026 7.32703C14.6794 7.32703 14.849 7.39726 14.974 7.52229C15.099 7.64731 15.1693 7.81688 15.1693 7.99369C15.1693 8.1705 15.099 8.34007 14.974 8.4651C14.849 8.59012 14.6794 8.66036 14.5026 8.66036ZM14.5026 13.327C14.3258 13.327 14.1562 13.2568 14.0312 13.1318C13.9062 13.0067 13.8359 12.8372 13.8359 12.6604C13.8359 12.4835 13.9062 12.314 14.0312 12.189C14.1562 12.0639 14.3258 11.9937 14.5026 11.9937C14.6794 11.9937 14.849 12.0639 14.974 12.189C15.099 12.314 15.1693 12.4835 15.1693 12.6604C15.1693 12.8372 15.099 13.0067 14.974 13.1318C14.849 13.2568 14.6794 13.327 14.5026 13.327ZM14.5026 17.9937C14.3258 17.9937 14.1562 17.9235 14.0312 17.7984C13.9062 17.6734 13.8359 17.5038 13.8359 17.327C13.8359 17.1502 13.9062 16.9806 14.0312 16.8556C14.1562 16.7306 14.3258 16.6604 14.5026 16.6604C14.6794 16.6604 14.849 16.7306 14.974 16.8556C15.099 16.9806 15.1693 17.1502 15.1693 17.327C15.1693 17.5038 15.099 17.6734 14.974 17.7984C14.849 17.9235 14.6794 17.9937 14.5026 17.9937Z" stroke="#A1A1AA" stroke-linecap="round" stroke-linejoin="round"/>
</svg>
