<svg width="24" height="24" viewBox="0 0 24 24" fill="none" xmlns="http://www.w3.org/2000/svg">
<path d="M4.48964 12.2467C4.69979 12.1346 4.92115 12.0226 5.15932 11.9161C5.54835 11.748 5.94583 11.6003 6.35017 11.4734C5.47594 11.0166 4.994 10.5039 4.994 10.0724C4.994 9.38027 6.23528 8.47523 8.35639 7.95966V6.23083C5.32744 6.87249 3.31281 8.31271 3.31281 10.0724C3.31281 10.8793 3.73871 11.6191 4.48964 12.2467Z" fill="#3C3C3C"/>
<path d="M13.1535 5.90286L14.8683 4.18804L13.6803 3L10.5644 6.11582C10.407 6.27343 10.3186 6.48708 10.3186 6.70984C10.3186 6.9326 10.407 7.14625 10.5644 7.30386L13.6803 10.4197L14.8683 9.23163L13.2319 7.59247C16.7933 7.83064 19.004 9.14757 19.004 10.0722C19.004 10.7643 17.7628 11.6694 15.6416 12.1849V13.9138C18.6706 13.2721 20.6852 11.8319 20.6852 10.0722C20.6852 7.86706 17.519 6.14944 13.1535 5.90286Z" fill="#3C3C3C"/>
<path d="M19.5083 14.6226C19.2982 14.7347 19.0768 14.8468 18.8386 14.9532C18.4506 15.1214 18.054 15.2691 17.6506 15.396C18.522 15.8527 19.004 16.3655 19.004 16.797C19.004 17.8253 16.2748 19.3188 11.999 19.3188C7.72314 19.3188 4.994 17.8253 4.994 16.797C4.994 15.8723 7.20477 14.5554 10.7661 14.3172L9.12974 15.9564L10.3178 17.1444L13.4336 14.0286C13.591 13.871 13.6794 13.6573 13.6794 13.4346C13.6794 13.2118 13.591 12.9982 13.4336 12.8405L10.3178 9.72473L9.12974 10.9128L10.8446 12.6276C6.47906 12.8742 3.31281 14.5918 3.31281 16.797C3.31281 19.1927 7.04786 20.9999 11.999 20.9999C16.9501 20.9999 20.6852 19.1927 20.6852 16.797C20.6852 15.99 20.2593 15.2503 19.5083 14.6226Z" fill="#3C3C3C"/>
</svg>
