<svg width="24" height="24" viewBox="0 0 24 24" fill="none" xmlns="http://www.w3.org/2000/svg">
<path d="M16.1981 11.1001H14.9655C14.9064 10.906 14.8282 10.7181 14.7322 10.5394L15.6046 9.66683C15.6609 9.61049 15.6926 9.53408 15.6926 9.45442C15.6926 9.37475 15.6609 9.29835 15.6046 9.24201L14.7567 8.39397C14.7004 8.33765 14.624 8.30601 14.5443 8.30601C14.4647 8.30601 14.3883 8.33765 14.3319 8.39397L13.4595 9.26651C13.2808 9.17045 13.093 9.0923 12.8989 9.0332V7.80037C12.8989 7.76092 12.8911 7.72185 12.876 7.68541C12.8609 7.64896 12.8388 7.61584 12.8109 7.58794C12.783 7.56005 12.7499 7.53792 12.7135 7.52282C12.677 7.50772 12.638 7.49995 12.5985 7.49995H11.3995C11.36 7.49995 11.3209 7.50773 11.2845 7.52282C11.2481 7.53792 11.2149 7.56005 11.1871 7.58795C11.1592 7.61584 11.137 7.64896 11.1219 7.68541C11.1069 7.72186 11.0991 7.76092 11.0991 7.80037V9.03321C10.9048 9.09206 10.7168 9.16998 10.5378 9.26582L9.66606 8.39398C9.60973 8.33766 9.53334 8.30602 9.45368 8.30602C9.37403 8.30602 9.29763 8.33766 9.24131 8.39398L8.3934 9.24202C8.33708 9.29836 8.30544 9.37476 8.30544 9.45443C8.30544 9.53409 8.33708 9.6105 8.3934 9.66684L9.2651 10.5387C9.16926 10.7177 9.09136 10.9058 9.03253 11.1001H7.79987C7.76042 11.1001 7.72136 11.1079 7.68491 11.123C7.64847 11.1381 7.61536 11.1602 7.58746 11.1881C7.55957 11.216 7.53745 11.2491 7.52235 11.2856C7.50726 11.322 7.4995 11.3611 7.4995 11.4005V12.5998C7.49949 12.6794 7.53114 12.7558 7.58747 12.8122C7.6438 12.8685 7.7202 12.9002 7.79987 12.9002H9.03253C9.09163 13.0943 9.16977 13.2821 9.2658 13.4609L8.3934 14.3334C8.33708 14.3898 8.30544 14.4662 8.30544 14.5458C8.30544 14.6255 8.33708 14.7019 8.3934 14.7583L9.24131 15.6063C9.2692 15.6342 9.30231 15.6563 9.33875 15.6714C9.37519 15.6865 9.41424 15.6943 9.45369 15.6943C9.49313 15.6943 9.53219 15.6865 9.56863 15.6714C9.60507 15.6563 9.63818 15.6342 9.66606 15.6063L10.5385 14.7338C10.7172 14.8298 10.905 14.908 11.0991 14.9671V16.1999C11.0991 16.2796 11.1307 16.356 11.1871 16.4123C11.2434 16.4687 11.3198 16.5003 11.3995 16.5003H12.5985C12.638 16.5003 12.677 16.4926 12.7135 16.4775C12.7499 16.4624 12.783 16.4402 12.8109 16.4123C12.8388 16.3844 12.8609 16.3513 12.876 16.3149C12.8911 16.2784 12.8989 16.2394 12.8989 16.1999V14.9671C13.0932 14.9082 13.2812 14.8303 13.4602 14.7344L14.3319 15.6063C14.3598 15.6342 14.3929 15.6563 14.4294 15.6714C14.4658 15.6865 14.5049 15.6943 14.5443 15.6943C14.5838 15.6943 14.6228 15.6865 14.6593 15.6714C14.6957 15.6563 14.7288 15.6342 14.7567 15.6063L15.6046 14.7583C15.6609 14.7019 15.6926 14.6255 15.6926 14.5458C15.6926 14.4662 15.6609 14.3898 15.6046 14.3334L14.7329 13.4616C14.8287 13.2826 14.9066 13.0945 14.9655 12.9002H16.1981C16.2376 12.9002 16.2766 12.8924 16.3131 12.8773C16.3495 12.8622 16.3826 12.8401 16.4105 12.8122C16.4384 12.7843 16.4606 12.7512 16.4756 12.7147C16.4907 12.6783 16.4985 12.6392 16.4985 12.5998V11.4005C16.4985 11.3611 16.4907 11.322 16.4756 11.2856C16.4606 11.2491 16.4384 11.216 16.4105 11.1881C16.3826 11.1602 16.3495 11.1381 16.3131 11.123C16.2766 11.1079 16.2376 11.1001 16.1981 11.1001ZM11.999 13.4002C11.7221 13.4002 11.4514 13.3182 11.2211 13.1644C10.9908 13.0105 10.8114 12.7919 10.7054 12.5361C10.5994 12.2802 10.5716 11.9987 10.6256 11.7271C10.6796 11.4555 10.8129 11.206 11.0087 11.0102C11.2045 10.8144 11.454 10.681 11.7256 10.627C11.9972 10.573 12.2787 10.6007 12.5345 10.7066C12.7904 10.8126 13.009 10.992 13.1629 11.2223C13.3167 11.4525 13.3988 11.7232 13.3988 12.0001C13.3989 12.3714 13.2514 12.7275 12.9889 12.9901C12.7264 13.2527 12.3703 13.4002 11.999 13.4002H11.999ZM13.8228 19.1749L14.2147 20.7261C12.4577 21.1696 10.6078 21.0728 8.90673 20.4482C7.20565 19.8237 5.73256 18.7005 4.67998 17.2254C3.6274 15.7503 3.04431 13.992 3.00691 12.1803C2.96951 10.3686 3.47955 8.58769 4.47036 7.07044L3 5.59986H6.99956V9.60004L5.63139 8.23166C4.88902 9.49046 4.53565 10.9407 4.61579 12.3999C4.69592 13.8591 5.20596 15.262 6.08171 16.432C6.95745 17.6019 8.15975 18.4866 9.53723 18.9747C10.9147 19.4628 12.4058 19.5324 13.8228 19.1749L13.8228 19.1749ZM19.5256 16.9278L20.998 18.4004H16.9984V14.4002L18.3642 15.7662C19.1069 14.5078 19.4606 13.0578 19.3808 11.5987C19.3009 10.1397 18.7911 8.73689 17.9155 7.56705C17.0399 6.39722 15.8377 5.51266 14.4603 5.02478C13.0829 4.53691 11.592 4.46754 10.1752 4.82542L9.78328 3.2742C11.54 2.83043 13.3898 2.92705 15.0908 3.55144C16.7918 4.17584 18.2648 5.29893 19.3172 6.77391C20.3697 8.24888 20.9526 10.0071 20.9898 11.8187C21.0269 13.6302 20.5166 15.4109 19.5256 16.9278L19.5256 16.9278Z" fill="#3C3C3C"/>
</svg>
